<?xml version="1.0" encoding="utf-8"?>
<!-- Generator: Adobe Illustrator 16.0.4, SVG Export Plug-In . SVG Version: 6.00 Build 0)  -->
<!DOCTYPE svg PUBLIC "-//W3C//DTD SVG 1.1//EN" "http://www.w3.org/Graphics/SVG/1.1/DTD/svg11.dtd">
<svg version="1.1" xmlns="http://www.w3.org/2000/svg" xmlns:xlink="http://www.w3.org/1999/xlink" x="0px" y="0px" width="792px"
	 height="612px" viewBox="0 0 792 612" enable-background="new 0 0 792 612" xml:space="preserve">
<g id="Layer_2">
	<line fill="none" stroke="#939598" stroke-width="3" stroke-miterlimit="10" x1="0" y1="290.475" x2="792" y2="290.475"/>
	<line fill="none" stroke="#939598" stroke-width="3" stroke-miterlimit="10" x1="412.881" y1="615.051" x2="412.034" y2="0"/>
</g>
<g id="Layer_1">
	<text transform="matrix(1 0 0 1 625.5938 375.2207)" font-family="'MyriadPro-Regular'" font-size="12">taxes (to pay for transit)</text>
	<text transform="matrix(1 0 0 1 151.814 345.3555)" font-family="'MyriadPro-Regular'" font-size="12">development of alternative fuels</text>
	<text transform="matrix(1 0 0 1 194.9321 246.8979)" font-family="'MyriadPro-Regular'" font-size="12">bus rapid transit/other mass transit within cities</text>
	<text transform="matrix(1 0 0 1 393.1865 178.7285)" font-family="'MyriadPro-Regular'" font-size="12">mass transit (buses, trains) between cities</text>
	<text transform="matrix(1 0 0 1 187.9995 171.1011)" font-family="'MyriadPro-Regular'" font-size="12">bike shares</text>
	<text transform="matrix(1 0 0 1 453.7959 147.8809)" font-family="'MyriadPro-Regular'" font-size="12">rising popularity of urban cycling</text>
	<text transform="matrix(1 0 0 1 497.8633 279.2354)" font-family="'MyriadPro-Regular'" font-size="12">taxi apps (uber/etc)</text>
	<text transform="matrix(1 0 0 1 658.4062 92.5918)" font-family="'MyriadPro-Regular'" font-size="12">self-driving cars</text>
	<text transform="matrix(1 0 0 1 290.4072 454.626)" font-family="'MyriadPro-Regular'" font-size="12">electric cars</text>
	<text transform="matrix(1 0 0 1 451.2705 513.082)" font-family="'MyriadPro-Regular'" font-size="12">people moving to cities, not suburbs/towns</text>
	<text transform="matrix(1 0 0 1 59.6782 267.8965)" font-family="'MyriadPro-Regular'" font-size="12">gentrification, neighborhoods changing rapidly</text>
	<text transform="matrix(1 0 0 1 330.8818 477.2188)" font-family="'MyriadPro-Regular'" font-size="12">incomes of people in the city rising</text>
	<text transform="matrix(1 0 0 1 485.457 318.5596)" font-family="'MyriadPro-Regular'" font-size="12">development of walkable neighborhoods</text>
	<text transform="matrix(1 0 0 1 78.1523 307.2549)" font-family="'MyriadPro-Regular'" font-size="12">climate change, necessity of eco-consciousness</text>
	<text transform="matrix(1 0 0 1 128.1519 220.8135)" font-family="'MyriadPro-Regular'" font-size="12">unemployment</text>
	<text transform="matrix(1 0 0 1 247.6431 119.9668)" font-family="'MyriadPro-Regular'" font-size="12">tunnel-boring technology</text>
	<text transform="matrix(1 0 0 1 28.1523 574.207)" font-family="'MyriadPro-Regular'" font-size="12">Amazon/delivery companies</text>
	<text transform="matrix(1 0 0 1 389.1689 403.8652)" font-family="'MyriadPro-Regular'" font-size="12">parking or lack thereof</text>
	<text transform="matrix(1 0 0 1 355.2705 358.1016)" font-family="'MyriadPro-Regular'" font-size="12">popularity/trendiness of alternative transport</text>
	<text transform="matrix(1 0 0 1 4.5083 286)" font-family="'MyriadPro-Regular'" font-size="12">Low Importance</text>
	<text transform="matrix(1 0 0 1 703.0508 283.5425)" font-family="'MyriadPro-Regular'" font-size="12">High Importance</text>
	<text transform="matrix(1 0 0 1 416.6953 608.5078)" font-family="'MyriadPro-Regular'" font-size="12">Low Uncertainty</text>
	<text transform="matrix(1 0 0 1 417.4922 14.4062)" font-family="'MyriadPro-Regular'" font-size="12">High Uncertainty</text>
	<text transform="matrix(1 0 0 1 280.6094 579.1865)" font-family="'MyriadPro-Regular'" font-size="12">knowledge economy growing</text>
	<text transform="matrix(1 0 0 1 542.542 543.8643)" font-family="'MyriadPro-Regular'" font-size="12">influx of immigrants</text>
	<text transform="matrix(1 0 0 1 602.8633 483.9316)" font-family="'MyriadPro-Regular'" font-size="12">population growing older</text>
	<text transform="matrix(1 0 0 1 21.187 101.4902)" font-family="'MyriadPro-Regular'" font-size="12">international conflicts</text>
	<text transform="matrix(1 0 0 1 61.2207 370.8457)" font-family="'MyriadPro-Regular'" font-size="12">rise of religion’s importance</text>
	<text transform="matrix(1 0 0 1 309.9668 76.2866)" font-family="'MyriadPro-Regular'" font-size="12">disease outbreaks</text>
</g>
</svg>
